<svg width="25" height="24" viewBox="0 0 25 24" fill="none" xmlns="http://www.w3.org/2000/svg">
    <g clip-path="url(#clip0_1316_11285)">
        <path d="M3.8269 12.75C3.8269 13.9319 4.0597 15.1022 4.51199 16.1942C4.96428 17.2861 5.62722 18.2782 6.46294 19.114C7.29867 19.9497 8.29082 20.6126 9.38275 21.0649C10.4747 21.5172 11.645 21.75 12.8269 21.75C14.0088 21.75 15.1791 21.5172 16.2711 21.0649C17.363 20.6126 18.3551 19.9497 19.1909 19.114C20.0266 18.2782 20.6895 17.2861 21.1418 16.1942C21.5941 15.1022 21.8269 13.9319 21.8269 12.75C21.8269 11.5681 21.5941 10.3978 21.1418 9.30585C20.6895 8.21392 20.0266 7.22177 19.1909 6.38604C18.3551 5.55031 17.363 4.88738 16.2711 4.43508C15.1791 3.98279 14.0088 3.75 12.8269 3.75C11.645 3.75 10.4747 3.98279 9.38275 4.43508C8.29082 4.88738 7.29867 5.55031 6.46294 6.38604C5.62722 7.22177 4.96428 8.21392 4.51199 9.30585C4.0597 10.3978 3.8269 11.5681 3.8269 12.75Z" stroke="black" stroke-width="1.5" stroke-linecap="round" stroke-linejoin="round"/>
        <path d="M6.8269 23.25L8.2129 20.479" stroke="black" stroke-width="1.5" stroke-linecap="round" stroke-linejoin="round"/>
        <path d="M12.8269 12.75H9.43591" stroke="black" stroke-width="1.5" stroke-linecap="round" stroke-linejoin="round"/>
        <path d="M12.8269 7.5V12.75" stroke="black" stroke-width="1.5" stroke-linecap="round" stroke-linejoin="round"/>
        <path d="M2.3269 3.75L6.0769 0.75" stroke="black" stroke-width="1.5" stroke-linecap="round" stroke-linejoin="round"/>
        <path d="M18.8269 23.25L17.4409 20.478" stroke="black" stroke-width="1.5" stroke-linecap="round" stroke-linejoin="round"/>
        <path d="M23.3269 3.75L19.5769 0.75" stroke="black" stroke-width="1.5" stroke-linecap="round" stroke-linejoin="round"/>
    </g>
    <defs>
        <clipPath id="clip0_1316_11285">
            <rect width="24" height="24" fill="white" transform="translate(0.826904)"/>
        </clipPath>
    </defs>
</svg>
