<svg width="28" height="24" viewBox="0 0 28 24" fill="none" xmlns="http://www.w3.org/2000/svg">
    <path d="M20.9999 2C22.6999 4.3 19.1999 4.3 20.9999 7M13.9999 23C27.4999 23 27.1999 21.2 26.8999 17.4C26.5999 13.2 21.9999 10 13.9999 10C5.99994 10 1.39994 13.2 1.09994 17.4C0.79994 21.2 0.49994 23 13.9999 23ZM13.9999 15C13.9999 13.5 14.0999 11.8 14.9999 10L13.9999 15ZM7.99994 15C7.99994 13.5 8.09994 12.4 8.99994 10.7L7.99994 15ZM19.9999 15C19.9999 13.7 20.0999 12.6 20.7999 11.1L19.9999 15ZM13.9999 1C15.6999 3.3 12.1999 3.3 13.9999 6V1ZM6.99994 2C8.69994 4.3 5.19994 4.3 6.99994 7V2Z" stroke="#21A300" stroke-width="2" stroke-miterlimit="10" stroke-linecap="round" stroke-linejoin="round"/>
</svg>
