<svg width="24" height="28" viewBox="0 0 24 28" fill="none" xmlns="http://www.w3.org/2000/svg">
    <path d="M22.6665 8.66667L14.6665 1.65334C13.9332 0.997402 12.9838 0.634766 11.9999 0.634766C11.016 0.634766 10.0666 0.997402 9.33321 1.65334L1.33322 8.66667C0.909707 9.04544 0.571749 9.51008 0.341845 10.0297C0.111941 10.5493 -0.00463422 11.1118 -0.000117748 11.68V23.3333C-0.000117748 24.3942 0.42131 25.4116 1.17146 26.1618C1.9216 26.9119 2.93902 27.3333 3.99988 27.3333H19.9999C21.0607 27.3333 22.0782 26.9119 22.8283 26.1618C23.5785 25.4116 23.9999 24.3942 23.9999 23.3333V11.6667C24.0025 11.1008 23.885 10.5407 23.6552 10.0236C23.4253 9.50644 23.0884 9.04395 22.6665 8.66667ZM14.6665 24.6667H9.33321V18C9.33321 17.6464 9.47369 17.3072 9.72374 17.0572C9.97379 16.8071 10.3129 16.6667 10.6665 16.6667H13.3332C13.6868 16.6667 14.026 16.8071 14.276 17.0572C14.5261 17.3072 14.6665 17.6464 14.6665 18V24.6667ZM21.3332 23.3333C21.3332 23.687 21.1927 24.0261 20.9427 24.2761C20.6926 24.5262 20.3535 24.6667 19.9999 24.6667H17.3332V18C17.3332 16.9391 16.9118 15.9217 16.1616 15.1716C15.4115 14.4214 14.3941 14 13.3332 14H10.6665C9.60568 14 8.58827 14.4214 7.83812 15.1716C7.08798 15.9217 6.66655 16.9391 6.66655 18V24.6667H3.99988C3.64626 24.6667 3.30712 24.5262 3.05707 24.2761C2.80702 24.0261 2.66655 23.687 2.66655 23.3333V11.6667C2.66679 11.4774 2.70734 11.2903 2.78551 11.1178C2.86367 10.9454 2.97766 10.7916 3.11988 10.6667L11.1199 3.66667C11.3632 3.45292 11.676 3.33503 11.9999 3.33503C12.3238 3.33503 12.6366 3.45292 12.8799 3.66667L20.8799 10.6667C21.0221 10.7916 21.1361 10.9454 21.2143 11.1178C21.2924 11.2903 21.333 11.4774 21.3332 11.6667V23.3333Z" fill="#A36200"/>
</svg>
