<svg width="32" height="17" viewBox="0 0 32 17" fill="none" xmlns="http://www.w3.org/2000/svg">
    <path d="M25.3333 0.669312H22.6667C21.196 0.669312 20 1.86531 20 3.33598V7.33598H12V3.33598C12 1.86531 10.804 0.669312 9.33333 0.669312H6.66667C5.196 0.669312 4 1.86531 4 3.33598V14.0026C4 15.4733 5.196 16.6693 6.66667 16.6693H9.33333C10.804 16.6693 12 15.4733 12 14.0026V10.0026H20V14.0026C20 15.4733 21.196 16.6693 22.6667 16.6693H25.3333C26.804 16.6693 28 15.4733 28 14.0026V3.33598C28 1.86531 26.804 0.669312 25.3333 0.669312ZM6.66667 14.0026V3.33598H9.33333L9.33467 14.0026H6.66667ZM22.6667 14.0026V3.33598H25.3333L25.3347 14.0026H22.6667ZM29.3333 6.00264H32V11.336H29.3333V6.00264ZM0 6.00264H2.66667V11.336H0V6.00264Z" fill="#00A32F"/>
</svg>
