<svg width="20" height="20" viewBox="0 0 20 20" fill="none" xmlns="http://www.w3.org/2000/svg">
    <path d="M18.04 4.81994L12.28 0.789938C10.71 -0.310062 8.29999 -0.250062 6.78999 0.919938L1.77999 4.82994C0.77999 5.60994 -0.0100098 7.20994 -0.0100098 8.46994V15.3699C-0.0100098 17.9199 2.05999 19.9999 4.60999 19.9999H15.39C17.94 19.9999 20.01 17.9299 20.01 15.3799V8.59994C20.01 7.24994 19.14 5.58994 18.04 4.81994ZM10.75 15.9999C10.75 16.4099 10.41 16.7499 9.99999 16.7499C9.58999 16.7499 9.24999 16.4099 9.24999 15.9999V12.9999C9.24999 12.5899 9.58999 12.2499 9.99999 12.2499C10.41 12.2499 10.75 12.5899 10.75 12.9999V15.9999Z" fill="white" fill-opacity="0.87"/>
</svg>
