<svg width="25" height="24" viewBox="0 0 25 24" fill="none" xmlns="http://www.w3.org/2000/svg">
    <g clip-path="url(#clip0_1316_12274)">
        <path d="M19.1555 14.004L14.3685 14.961" stroke="black" stroke-width="1.5" stroke-linecap="round" stroke-linejoin="round"/>
        <path d="M14.8435 9.531L12.5835 10.486C12.4052 10.5597 12.2138 10.5963 12.0208 10.5935C11.8279 10.5908 11.6376 10.5487 11.4615 10.47C11.2829 10.3902 11.1218 10.2758 10.9878 10.1333C10.8537 9.99083 10.7493 9.82315 10.6805 9.64C10.545 9.29181 10.542 8.90598 10.6722 8.55574C10.8023 8.2055 11.0565 7.91522 11.3865 7.74L13.6455 6.613C13.8897 6.4864 14.1579 6.41261 14.4325 6.39641C14.7071 6.38022 14.9821 6.42199 15.2395 6.519L19.8785 8.347" stroke="black" stroke-width="1.5" stroke-linecap="round" stroke-linejoin="round"/>
        <path d="M5.60547 15H7.20547L10.2545 17.326C10.3971 17.4872 10.5967 17.5866 10.8113 17.6034C11.0258 17.6202 11.2385 17.553 11.4045 17.416L15.6645 13.898C15.8328 13.7587 15.9404 13.5593 15.9645 13.3421C15.9886 13.1249 15.9272 12.9068 15.7935 12.734L13.4465 10.125" stroke="black" stroke-width="1.5" stroke-linecap="round" stroke-linejoin="round"/>
        <path d="M11.1415 7.9L10.8945 7.7C10.6496 7.51932 10.3626 7.40418 10.0607 7.3655C9.7588 7.32683 9.45204 7.36589 9.16949 7.479L5.59949 9" stroke="black" stroke-width="1.5" stroke-linecap="round" stroke-linejoin="round"/>
        <path d="M1.79553 15.75H4.45553C4.75661 15.7661 5.05182 15.6624 5.27667 15.4615C5.50152 15.2607 5.63773 14.979 5.65553 14.678V9.321C5.63748 9.0202 5.50116 8.73876 5.27634 8.5381C5.05151 8.33745 4.75644 8.23388 4.45553 8.25H1.79553" stroke="black" stroke-width="1.5" stroke-linecap="round" stroke-linejoin="round"/>
        <path d="M23.0155 15.75H20.3555C20.0544 15.7661 19.7592 15.6624 19.5344 15.4615C19.3095 15.2607 19.1733 14.979 19.1555 14.678V9.321C19.1736 9.0202 19.3099 8.73876 19.5347 8.5381C19.7595 8.33745 20.0546 8.23388 20.3555 8.25H23.0155" stroke="black" stroke-width="1.5" stroke-linecap="round" stroke-linejoin="round"/>
        <path d="M1.15552 12C1.15552 14.9837 2.34078 17.8452 4.45057 19.955C6.56035 22.0647 9.42183 23.25 12.4055 23.25C15.3892 23.25 18.2507 22.0647 20.3605 19.955C22.4703 17.8452 23.6555 14.9837 23.6555 12C23.6555 9.01631 22.4703 6.15483 20.3605 4.04505C18.2507 1.93526 15.3892 0.75 12.4055 0.75C9.42183 0.75 6.56035 1.93526 4.45057 4.04505C2.34078 6.15483 1.15552 9.01631 1.15552 12Z" stroke="black" stroke-width="1.5" stroke-linecap="round" stroke-linejoin="round"/>
    </g>
    <defs>
        <clipPath id="clip0_1316_12274">
            <rect width="24" height="24" fill="white" transform="translate(0.405518)"/>
        </clipPath>
    </defs>
</svg>
