<svg width="25" height="25" viewBox="0 0 25 25" fill="none" xmlns="http://www.w3.org/2000/svg">
    <path d="M4.97097 24.932H3.97097C2.87797 24.932 1.91197 24.498 1.25197 23.712C0.591966 22.925 0.322966 21.848 0.515966 20.758C0.893966 18.612 2.87597 16.932 5.02997 16.932H7.54797V3.80296C7.55017 3.04234 7.84026 2.31077 8.3599 1.75533C8.87953 1.19988 9.59019 0.861766 10.349 0.808955L21.349 0.0759553C21.7586 0.0500826 22.1691 0.107941 22.5556 0.246001C22.9421 0.384061 23.2965 0.599427 23.597 0.878955C24.201 1.44396 24.548 2.24296 24.548 3.06996L24.538 17.439C24.537 17.659 24.526 17.877 24.485 18.107C24.107 20.252 22.125 21.932 19.971 21.932H18.971C17.878 21.932 16.912 21.498 16.252 20.712C15.592 19.925 15.323 18.848 15.516 17.758C15.894 15.612 17.876 13.932 20.03 13.932H22.548V9.06995C22.548 8.78996 22.436 8.52995 22.231 8.33895C22.1315 8.24484 22.0136 8.17249 21.8846 8.12652C21.7556 8.08054 21.6185 8.06196 21.482 8.07195L10.482 8.80496C10.229 8.82263 9.99216 8.93535 9.81891 9.12047C9.64566 9.30559 9.54887 9.54941 9.54797 9.80296V20.432C9.54797 20.521 9.53597 20.607 9.51497 20.689C9.50597 20.994 9.49497 21.05 9.48597 21.107C9.10597 23.251 7.12397 24.932 4.97097 24.932ZM5.02897 18.932C3.85697 18.932 2.69197 19.927 2.48397 21.106C2.39397 21.62 2.50097 22.088 2.78397 22.427C3.05697 22.752 3.47897 22.932 3.97097 22.932H4.97097C6.14297 22.932 7.30797 21.937 7.51597 20.758C7.51297 20.756 7.52697 20.465 7.53597 18.932H5.02897ZM20.029 15.932C18.857 15.932 17.692 16.927 17.484 18.106C17.394 18.62 17.501 19.088 17.784 19.427C18.057 19.752 18.479 19.932 18.971 19.932H19.971C21.143 19.932 22.308 18.937 22.516 17.758C22.536 17.645 22.537 17.535 22.537 17.428L22.544 15.932H20.029ZM10.48 2.80496C10.227 2.82263 9.99016 2.93535 9.81691 3.12047C9.64366 3.30559 9.54686 3.54941 9.54597 3.80296V6.97496C9.79897 6.88496 10.067 6.82796 10.347 6.80896L21.347 6.07596C21.755 6.05296 22.164 6.10695 22.546 6.24195V3.06896C22.546 2.78896 22.434 2.52896 22.229 2.33796C22.1294 2.24404 22.0114 2.17182 21.8825 2.12586C21.7536 2.07991 21.6165 2.06121 21.48 2.07096L10.48 2.80496Z" fill="#A000A3"/>
</svg>
