<svg width="30" height="24" viewBox="0 0 30 24" fill="none" xmlns="http://www.w3.org/2000/svg">
    <path d="M10.1539 0.00305176C6.21935 0.00305176 3.00186 3.18902 3.00187 7.10438C3.0394 8.07791 3.20149 9.16544 3.40029 10.0066H1.99605C0.632501 9.97638 0.632501 12.0371 1.99605 12.0065H4.02527C5.77765 16.5603 9.6991 21.1133 14.5092 23.8674C14.8156 24.0416 15.1911 24.0416 15.4975 23.8674C18.6775 22.0467 21.5124 19.3152 23.5811 16.3247C24.5509 14.9228 25.3472 13.464 25.9307 12.0065H28.0028C29.3664 12.0367 29.3664 9.976 28.0028 10.0066H26.5849C26.8493 8.9982 26.9857 8.05807 26.999 7.10438C26.999 3.18902 23.7795 0.00305176 19.845 0.00305176C18.0134 0.00305176 16.2915 0.699318 14.9936 1.88778C13.6967 0.702266 11.9838 0.00305176 10.1539 0.00305176ZM10.1539 2.00496C11.7476 2.00496 13.216 2.72449 14.1772 3.91495C14.5501 4.37698 15.2411 4.41428 15.6615 3.99511C16.9014 2.90612 18.4474 2.02768 19.845 2.00496C22.6609 2.00496 24.9182 4.20634 24.9912 6.96759C24.9284 8.03776 24.764 9.14103 24.5088 10.0066H20.0012C19.7362 10.0046 19.4812 10.1079 19.2922 10.2938L18.2727 11.3134L16.8939 8.55959C16.5247 7.82503 15.4761 7.82503 15.1069 8.55959L14.103 10.5673L12.9292 7.62986C12.7762 7.24705 12.404 6.99741 11.9917 7.00104C11.6584 7.00433 11.3486 7.17332 11.1656 7.45212L9.46646 10.0067H5.51544C5.22998 8.94223 5.03781 7.89728 5.01156 6.92284C5.10795 4.18279 7.35332 2.00508 10.1539 2.00508V2.00496ZM11.7769 10.1394L13.0698 13.3717C13.3879 14.1732 14.5033 14.2233 14.892 13.4537L15.9994 11.239L17.1068 13.4537C17.4129 14.0634 18.2263 14.1944 18.7083 13.7115L20.4133 12.0065H23.7491C23.2677 13.0662 22.6578 14.1427 21.9347 15.1879C20.1565 17.7586 17.6532 20.0239 15.0034 21.6682C11.1793 19.2952 7.98009 15.5725 6.30057 12.0065H9.99769C10.3345 12.0064 10.6487 11.8367 10.8336 11.5553L11.7769 10.1394Z" fill="#00A3A3"/>
</svg>
