<svg width="25" height="24" viewBox="0 0 25 24" fill="none" xmlns="http://www.w3.org/2000/svg">
    <path d="M10.2269 16.742L17.5679 9.39999C18.4169 9.80512 19.3705 9.93717 20.2976 9.77796C21.2247 9.61874 22.0797 9.17609 22.7449 8.51094C23.41 7.84578 23.8527 6.99081 24.0119 6.06371C24.1711 5.13661 24.039 4.18295 23.6339 3.33399L22.2089 4.76299C21.9246 5.0473 21.539 5.20703 21.1369 5.20703C20.7348 5.20703 20.3492 5.0473 20.0649 4.76299C19.7806 4.47868 19.6209 4.09307 19.6209 3.69099C19.6209 3.28891 19.7806 2.9033 20.0649 2.61899L21.4889 1.19399C20.6401 0.790236 19.6871 0.659274 18.7608 0.819102C17.8345 0.97893 16.9805 1.4217 16.3161 2.08657C15.6516 2.75143 15.2094 3.60576 15.0502 4.53212C14.891 5.45849 15.0226 6.41144 15.4269 7.25999L8.08591 14.6C7.23695 14.1949 6.28329 14.0628 5.35619 14.222C4.42909 14.3812 3.57412 14.8239 2.90896 15.489C2.24381 16.1542 1.80116 17.0092 1.64194 17.9363C1.48273 18.8634 1.61478 19.817 2.01991 20.666L3.44491 19.242C3.72922 18.9577 4.11483 18.798 4.51691 18.798C4.91899 18.798 5.3046 18.9577 5.58891 19.242C5.87322 19.5263 6.03295 19.9119 6.03295 20.314C6.03295 20.7161 5.87322 21.1017 5.58891 21.386L4.16491 22.808C5.01373 23.2117 5.96676 23.3427 6.89302 23.1829C7.81928 23.023 8.67332 22.5803 9.33774 21.9154C10.0022 21.2505 10.4444 20.3962 10.6036 19.4699C10.7628 18.5435 10.6312 17.5905 10.2269 16.742Z" stroke="black" stroke-width="1.5" stroke-linecap="round" stroke-linejoin="round"/>
</svg>
