<svg width="25" height="24" viewBox="0 0 25 24" fill="none" xmlns="http://www.w3.org/2000/svg">
    <g clip-path="url(#clip0_1316_12165)">
        <path d="M7.15552 11.25V21.735C7.15603 21.9326 7.10774 22.1273 7.01494 22.3017C6.92213 22.4762 6.78768 22.625 6.62352 22.735C6.11462 23.0738 5.5169 23.2546 4.90552 23.2546C4.29415 23.2546 3.69642 23.0738 3.18752 22.735C3.02337 22.625 2.88892 22.4762 2.79611 22.3017C2.7033 22.1273 2.65501 21.9326 2.65552 21.735V11.25" stroke="black" stroke-width="1.5" stroke-linecap="round" stroke-linejoin="round"/>
        <path d="M2.65552 11.25C2.65552 11.6478 2.89257 12.0294 3.31453 12.3107C3.73648 12.592 4.30878 12.75 4.90552 12.75C5.50225 12.75 6.07455 12.592 6.49651 12.3107C6.91846 12.0294 7.15552 11.6478 7.15552 11.25C7.15552 10.8522 6.91846 10.4706 6.49651 10.1893C6.07455 9.90804 5.50225 9.75 4.90552 9.75C4.30878 9.75 3.73648 9.90804 3.31453 10.1893C2.89257 10.4706 2.65552 10.8522 2.65552 11.25Z" stroke="black" stroke-width="1.5" stroke-linecap="round" stroke-linejoin="round"/>
        <path d="M14.6555 6.75V21.735C14.656 21.9326 14.6077 22.1273 14.5149 22.3017C14.4221 22.4762 14.2877 22.625 14.1235 22.735C13.6146 23.0738 13.0169 23.2546 12.4055 23.2546C11.7941 23.2546 11.1964 23.0738 10.6875 22.735C10.5234 22.625 10.3889 22.4762 10.2961 22.3017C10.2033 22.1273 10.155 21.9326 10.1555 21.735V6.75" stroke="black" stroke-width="1.5" stroke-linecap="round" stroke-linejoin="round"/>
        <path d="M10.1555 6.75C10.1555 7.14782 10.3926 7.52936 10.8145 7.81066C11.2365 8.09196 11.8088 8.25 12.4055 8.25C13.0023 8.25 13.5746 8.09196 13.9965 7.81066C14.4185 7.52936 14.6555 7.14782 14.6555 6.75C14.6555 6.35218 14.4185 5.97064 13.9965 5.68934C13.5746 5.40804 13.0023 5.25 12.4055 5.25C11.8088 5.25 11.2365 5.40804 10.8145 5.68934C10.3926 5.97064 10.1555 6.35218 10.1555 6.75Z" stroke="black" stroke-width="1.5" stroke-linecap="round" stroke-linejoin="round"/>
        <path d="M22.1555 2.25V21.735C22.156 21.9326 22.1077 22.1273 22.0149 22.3017C21.9221 22.4762 21.7877 22.625 21.6235 22.735C21.1146 23.0738 20.5169 23.2546 19.9055 23.2546C19.2941 23.2546 18.6964 23.0738 18.1875 22.735C18.0234 22.625 17.8889 22.4762 17.7961 22.3017C17.7033 22.1273 17.655 21.9326 17.6555 21.735V2.25" stroke="black" stroke-width="1.5" stroke-linecap="round" stroke-linejoin="round"/>
        <path d="M17.6555 2.25C17.6555 2.64782 17.8926 3.02936 18.3145 3.31066C18.7365 3.59196 19.3088 3.75 19.9055 3.75C20.5023 3.75 21.0746 3.59196 21.4965 3.31066C21.9185 3.02936 22.1555 2.64782 22.1555 2.25C22.1555 1.85218 21.9185 1.47064 21.4965 1.18934C21.0746 0.908035 20.5023 0.75 19.9055 0.75C19.3088 0.75 18.7365 0.908035 18.3145 1.18934C17.8926 1.47064 17.6555 1.85218 17.6555 2.25Z" stroke="black" stroke-width="1.5" stroke-linecap="round" stroke-linejoin="round"/>
    </g>
    <defs>
        <clipPath id="clip0_1316_12165">
            <rect width="24" height="24" fill="white" transform="translate(0.405518)"/>
        </clipPath>
    </defs>
</svg>

