<svg width="29" height="22" viewBox="0 0 29 22" fill="none" xmlns="http://www.w3.org/2000/svg">
<path d="M27.6533 7.58669L26.32 6.85336L14.32 0.186689H14.1733C14.0916 0.152128 14.0068 0.125343 13.92 0.106689H13.6667H13.4267C13.3356 0.125355 13.2463 0.152128 13.16 0.186689H13.0133L1.01333 6.85336C0.808136 6.96965 0.637459 7.13829 0.518713 7.34207C0.399967 7.54586 0.337402 7.7775 0.337402 8.01336C0.337402 8.24922 0.399967 8.48085 0.518713 8.68464C0.637459 8.88842 0.808136 9.05707 1.01333 9.17336L4.33333 11.0134V17.3334C4.33333 18.3942 4.75476 19.4116 5.50491 20.1618C6.25505 20.9119 7.27247 21.3334 8.33333 21.3334H19C20.0609 21.3334 21.0783 20.9119 21.8284 20.1618C22.5786 19.4116 23 18.3942 23 17.3334V11.0134L25.6667 9.52002V13.3334C25.6667 13.687 25.8071 14.0261 26.0572 14.2762C26.3072 14.5262 26.6464 14.6667 27 14.6667C27.3536 14.6667 27.6928 14.5262 27.9428 14.2762C28.1929 14.0261 28.3333 13.687 28.3333 13.3334V8.74669C28.3329 8.51043 28.2697 8.27852 28.1503 8.07469C28.0308 7.87087 27.8593 7.70246 27.6533 7.58669ZM20.3333 17.3334C20.3333 17.687 20.1929 18.0261 19.9428 18.2762C19.6928 18.5262 19.3536 18.6667 19 18.6667H8.33333C7.97971 18.6667 7.64057 18.5262 7.39052 18.2762C7.14048 18.0261 7 17.687 7 17.3334V12.4934L13.0133 15.8267L13.2133 15.9067H13.3333C13.444 15.9206 13.556 15.9206 13.6667 15.9067C13.7773 15.9206 13.8893 15.9206 14 15.9067H14.12C14.1908 15.8918 14.2585 15.8647 14.32 15.8267L20.3333 12.4934V17.3334ZM13.6667 13.1467L4.41333 8.00002L13.6667 2.85336L22.92 8.00002L13.6667 13.1467Z" fill="#0055A3"/>
</svg>
