<svg width="28" height="16" viewBox="0 0 28 16" fill="none" xmlns="http://www.w3.org/2000/svg">
    <path d="M26.7067 1.53333C26.5041 1.41631 26.2741 1.3547 26.0401 1.3547C25.806 1.3547 25.5761 1.41631 25.3734 1.53333L20.6667 3.85333C20.6288 2.81809 20.1906 1.83796 19.4446 1.11925C18.6985 0.40054 17.7027 -0.0006957 16.6667 9.05542e-07H4.66675C3.60588 9.05542e-07 2.58847 0.421428 1.83832 1.17157C1.08818 1.92172 0.666748 2.93913 0.666748 4V12C0.666748 13.0609 1.08818 14.0783 1.83832 14.8284C2.58847 15.5786 3.60588 16 4.66675 16H16.6667C17.7027 16.0007 18.6985 15.5995 19.4446 14.8807C20.1906 14.162 20.6288 13.1819 20.6667 12.1467L25.4134 14.52C25.5952 14.6132 25.7959 14.6634 26.0001 14.6667C26.2497 14.6675 26.4946 14.5982 26.7067 14.4667C26.8989 14.3466 27.0573 14.1795 27.1669 13.9812C27.2766 13.7829 27.3339 13.5599 27.3334 13.3333V2.66667C27.3339 2.44008 27.2766 2.21711 27.1669 2.01881C27.0573 1.82051 26.8989 1.65343 26.7067 1.53333ZM18.0001 12C18.0001 12.3536 17.8596 12.6928 17.6096 12.9428C17.3595 13.1929 17.0204 13.3333 16.6667 13.3333H4.66675C4.31313 13.3333 3.97399 13.1929 3.72394 12.9428C3.47389 12.6928 3.33341 12.3536 3.33341 12V4C3.33341 3.64638 3.47389 3.30724 3.72394 3.05719C3.97399 2.80714 4.31313 2.66667 4.66675 2.66667H16.6667C17.0204 2.66667 17.3595 2.80714 17.6096 3.05719C17.8596 3.30724 18.0001 3.64638 18.0001 4V12ZM24.6667 11.1733L20.6667 9.17333V6.82667L24.6667 4.82667V11.1733Z" fill="#0069A3"/>
</svg>
