<svg width="30" height="26" viewBox="0 0 30 26" fill="none" xmlns="http://www.w3.org/2000/svg">
    <path d="M11.0033 -0.00402832C9.3587 -0.00402832 7.99763 1.3571 7.99763 3.00167V3.99772H3.0018C1.3566 3.99772 0.00390625 5.35629 0.00390625 7.00147V9.00136C0.00390625 10.1372 0.646288 11.1747 1.65812 11.6809C1.77087 11.7373 1.88324 11.7944 1.99599 11.8508V22.9967C1.99599 24.6413 3.35709 26.0024 5.00169 26.0024H24.9967C26.6414 26.0024 28.0024 24.6413 28.0024 22.9967V11.8508C28.1157 11.7942 28.229 11.7376 28.3423 11.6809C29.3542 11.1747 29.9945 10.1372 29.9945 9.00136V7.00147C29.9945 5.35629 28.6438 3.99772 26.9986 3.99772H22.0008V3.00167C22.0008 1.3571 20.6417 -0.00402832 18.9971 -0.00402832H11.0033ZM11.0033 1.99587H18.9971C19.5684 1.99587 20.0009 2.43039 20.0009 3.00167V3.99772H9.99753V3.00167C9.99753 2.43039 10.432 1.99587 11.0033 1.99587ZM3.0018 5.99761H26.9986C27.5631 5.99761 28.0024 6.43695 28.0024 7.00147V9.00136C28.0024 9.37952 27.784 9.72476 27.4419 9.89585C23.4437 11.8962 19.4446 13.8942 15.4465 15.8955C15.1623 16.0376 14.8361 16.0376 14.552 15.8955C10.5538 13.8942 6.55667 11.8962 2.55846 9.89585C2.2163 9.72464 1.99599 9.37952 1.99599 9.00136V7.00147C1.99599 6.43695 2.43729 5.99761 3.0018 5.99761ZM14.9992 11.9993C14.447 11.9993 13.9993 12.4469 13.9993 12.9992C13.9993 13.5514 14.447 13.9992 14.9992 13.9992C15.5515 13.9992 15.9992 13.5514 15.9992 12.9992C15.9992 12.4469 15.5515 11.9993 14.9992 11.9993ZM3.99784 12.8508C7.21645 14.4608 10.4337 16.0718 13.6516 17.6826C14.497 18.1057 15.5014 18.1057 16.3468 17.6826C19.5648 16.0717 22.7838 14.4609 26.0026 12.8508V22.9967C26.0026 23.5679 25.568 24.0006 24.9967 24.0006H5.00169C4.43047 24.0006 3.99784 23.5679 3.99784 22.9967V12.8508Z" fill="#A31D00"/>
</svg>
